<mxfile host="Electron" modified="2024-04-21T18:31:10.681Z" agent="Mozilla/5.0 (Windows NT 10.0; Win64; x64) AppleWebKit/537.36 (KHTML, like Gecko) draw.io/24.2.5 Chrome/120.0.6099.109 Electron/28.1.0 Safari/537.36" etag="Kz5CzAiExfOSwDd4Xe1u" version="24.2.5" type="device">
  <diagram name="Page-1" id="7CC0Idg_L-vbRcXFa-VR">
    <mxGraphModel dx="3588" dy="2484" grid="1" gridSize="10" guides="1" tooltips="1" connect="1" arrows="1" fold="1" page="1" pageScale="1" pageWidth="1350" pageHeight="1800" math="0" shadow="0">
      <root>
        <mxCell id="0" />
        <mxCell id="1" parent="0" />
        <mxCell id="Rrt1pkGHF1JBezEq-9He-1" value="" style="shape=table;startSize=0;container=1;collapsible=0;childLayout=tableLayout;" parent="1" vertex="1">
          <mxGeometry x="80" y="180" width="1180" height="1480" as="geometry" />
        </mxCell>
        <mxCell id="Rrt1pkGHF1JBezEq-9He-2" value="" style="shape=tableRow;horizontal=0;startSize=0;swimlaneHead=0;swimlaneBody=0;strokeColor=inherit;top=0;left=0;bottom=0;right=0;collapsible=0;dropTarget=0;fillColor=none;points=[[0,0.5],[1,0.5]];portConstraint=eastwest;" parent="Rrt1pkGHF1JBezEq-9He-1" vertex="1">
          <mxGeometry width="1180" height="62" as="geometry" />
        </mxCell>
        <mxCell id="Rrt1pkGHF1JBezEq-9He-3" value="&lt;font color=&quot;#ffffff&quot;&gt;ID&lt;/font&gt;" style="shape=partialRectangle;html=1;whiteSpace=wrap;connectable=0;strokeColor=inherit;overflow=hidden;fillColor=#000000;top=0;left=0;bottom=0;right=0;pointerEvents=1;" parent="Rrt1pkGHF1JBezEq-9He-2" vertex="1">
          <mxGeometry width="109" height="62" as="geometry">
            <mxRectangle width="109" height="62" as="alternateBounds" />
          </mxGeometry>
        </mxCell>
        <mxCell id="Rrt1pkGHF1JBezEq-9He-4" value="&lt;font color=&quot;#ffffff&quot;&gt;Requirement&lt;/font&gt;" style="shape=partialRectangle;html=1;whiteSpace=wrap;connectable=0;strokeColor=inherit;overflow=hidden;fillColor=#000000;top=0;left=0;bottom=0;right=0;pointerEvents=1;" parent="Rrt1pkGHF1JBezEq-9He-2" vertex="1">
          <mxGeometry x="109" width="352" height="62" as="geometry">
            <mxRectangle width="352" height="62" as="alternateBounds" />
          </mxGeometry>
        </mxCell>
        <mxCell id="Rrt1pkGHF1JBezEq-9He-5" value="&lt;font color=&quot;#ffffff&quot;&gt;Related Use Case&lt;/font&gt;" style="shape=partialRectangle;html=1;whiteSpace=wrap;connectable=0;strokeColor=inherit;overflow=hidden;fillColor=#000000;top=0;left=0;bottom=0;right=0;pointerEvents=1;" parent="Rrt1pkGHF1JBezEq-9He-2" vertex="1">
          <mxGeometry x="461" width="219" height="62" as="geometry">
            <mxRectangle width="219" height="62" as="alternateBounds" />
          </mxGeometry>
        </mxCell>
        <mxCell id="Rrt1pkGHF1JBezEq-9He-6" value="&lt;font color=&quot;#ffffff&quot;&gt;Implemented By&lt;/font&gt;" style="shape=partialRectangle;html=1;whiteSpace=wrap;connectable=0;strokeColor=inherit;overflow=hidden;fillColor=#000000;top=0;left=0;bottom=0;right=0;pointerEvents=1;" parent="Rrt1pkGHF1JBezEq-9He-2" vertex="1">
          <mxGeometry x="680" width="256" height="62" as="geometry">
            <mxRectangle width="256" height="62" as="alternateBounds" />
          </mxGeometry>
        </mxCell>
        <mxCell id="Rrt1pkGHF1JBezEq-9He-7" value="&lt;font color=&quot;#ffffff&quot;&gt;Tested By&lt;/font&gt;" style="shape=partialRectangle;html=1;whiteSpace=wrap;connectable=0;strokeColor=inherit;overflow=hidden;fillColor=#000000;top=0;left=0;bottom=0;right=0;pointerEvents=1;" parent="Rrt1pkGHF1JBezEq-9He-2" vertex="1">
          <mxGeometry x="936" width="244" height="62" as="geometry">
            <mxRectangle width="244" height="62" as="alternateBounds" />
          </mxGeometry>
        </mxCell>
        <mxCell id="Rrt1pkGHF1JBezEq-9He-8" value="" style="shape=tableRow;horizontal=0;startSize=0;swimlaneHead=0;swimlaneBody=0;strokeColor=inherit;top=0;left=0;bottom=0;right=0;collapsible=0;dropTarget=0;fillColor=none;points=[[0,0.5],[1,0.5]];portConstraint=eastwest;" parent="Rrt1pkGHF1JBezEq-9He-1" vertex="1">
          <mxGeometry y="62" width="1180" height="58" as="geometry" />
        </mxCell>
        <mxCell id="Rrt1pkGHF1JBezEq-9He-9" value="1" style="shape=partialRectangle;html=1;whiteSpace=wrap;connectable=0;strokeColor=inherit;overflow=hidden;fillColor=none;top=0;left=0;bottom=0;right=0;pointerEvents=1;" parent="Rrt1pkGHF1JBezEq-9He-8" vertex="1">
          <mxGeometry width="109" height="58" as="geometry">
            <mxRectangle width="109" height="58" as="alternateBounds" />
          </mxGeometry>
        </mxCell>
        <mxCell id="Rrt1pkGHF1JBezEq-9He-10" value="The Neureset device is depedent on its battery power" style="shape=partialRectangle;html=1;whiteSpace=wrap;connectable=0;strokeColor=inherit;overflow=hidden;fillColor=none;top=0;left=0;bottom=0;right=0;pointerEvents=1;" parent="Rrt1pkGHF1JBezEq-9He-8" vertex="1">
          <mxGeometry x="109" width="352" height="58" as="geometry">
            <mxRectangle width="352" height="58" as="alternateBounds" />
          </mxGeometry>
        </mxCell>
        <mxCell id="Rrt1pkGHF1JBezEq-9He-11" value="N/A" style="shape=partialRectangle;html=1;whiteSpace=wrap;connectable=0;strokeColor=inherit;overflow=hidden;fillColor=none;top=0;left=0;bottom=0;right=0;pointerEvents=1;" parent="Rrt1pkGHF1JBezEq-9He-8" vertex="1">
          <mxGeometry x="461" width="219" height="58" as="geometry">
            <mxRectangle width="219" height="58" as="alternateBounds" />
          </mxGeometry>
        </mxCell>
        <mxCell id="Rrt1pkGHF1JBezEq-9He-12" value="MainWindow, MainWindow.ui" style="shape=partialRectangle;html=1;whiteSpace=wrap;connectable=0;strokeColor=inherit;overflow=hidden;fillColor=none;top=0;left=0;bottom=0;right=0;pointerEvents=1;" parent="Rrt1pkGHF1JBezEq-9He-8" vertex="1">
          <mxGeometry x="680" width="256" height="58" as="geometry">
            <mxRectangle width="256" height="58" as="alternateBounds" />
          </mxGeometry>
        </mxCell>
        <mxCell id="Rrt1pkGHF1JBezEq-9He-13" value="Run the simulator in QT and notice that the battery starts off at 100% (fully charged)." style="shape=partialRectangle;html=1;whiteSpace=wrap;connectable=0;strokeColor=inherit;overflow=hidden;fillColor=none;top=0;left=0;bottom=0;right=0;pointerEvents=1;" parent="Rrt1pkGHF1JBezEq-9He-8" vertex="1">
          <mxGeometry x="936" width="244" height="58" as="geometry">
            <mxRectangle width="244" height="58" as="alternateBounds" />
          </mxGeometry>
        </mxCell>
        <mxCell id="Rrt1pkGHF1JBezEq-9He-14" value="" style="shape=tableRow;horizontal=0;startSize=0;swimlaneHead=0;swimlaneBody=0;strokeColor=inherit;top=0;left=0;bottom=0;right=0;collapsible=0;dropTarget=0;fillColor=none;points=[[0,0.5],[1,0.5]];portConstraint=eastwest;" parent="Rrt1pkGHF1JBezEq-9He-1" vertex="1">
          <mxGeometry y="120" width="1180" height="62" as="geometry" />
        </mxCell>
        <mxCell id="Rrt1pkGHF1JBezEq-9He-15" value="2" style="shape=partialRectangle;html=1;whiteSpace=wrap;connectable=0;strokeColor=inherit;overflow=hidden;fillColor=none;top=0;left=0;bottom=0;right=0;pointerEvents=1;" parent="Rrt1pkGHF1JBezEq-9He-14" vertex="1">
          <mxGeometry width="109" height="62" as="geometry">
            <mxRectangle width="109" height="62" as="alternateBounds" />
          </mxGeometry>
        </mxCell>
        <mxCell id="Rrt1pkGHF1JBezEq-9He-16" value="The Neureset battery depletes the more you use it" style="shape=partialRectangle;html=1;whiteSpace=wrap;connectable=0;strokeColor=inherit;overflow=hidden;fillColor=none;top=0;left=0;bottom=0;right=0;pointerEvents=1;" parent="Rrt1pkGHF1JBezEq-9He-14" vertex="1">
          <mxGeometry x="109" width="352" height="62" as="geometry">
            <mxRectangle width="352" height="62" as="alternateBounds" />
          </mxGeometry>
        </mxCell>
        <mxCell id="Rrt1pkGHF1JBezEq-9He-17" value="N/A" style="shape=partialRectangle;html=1;whiteSpace=wrap;connectable=0;strokeColor=inherit;overflow=hidden;fillColor=none;top=0;left=0;bottom=0;right=0;pointerEvents=1;" parent="Rrt1pkGHF1JBezEq-9He-14" vertex="1">
          <mxGeometry x="461" width="219" height="62" as="geometry">
            <mxRectangle width="219" height="62" as="alternateBounds" />
          </mxGeometry>
        </mxCell>
        <mxCell id="Rrt1pkGHF1JBezEq-9He-18" value="MainWindow, MainWindow.ui" style="shape=partialRectangle;html=1;whiteSpace=wrap;connectable=0;strokeColor=inherit;overflow=hidden;fillColor=none;top=0;left=0;bottom=0;right=0;pointerEvents=1;" parent="Rrt1pkGHF1JBezEq-9He-14" vertex="1">
          <mxGeometry x="680" width="256" height="62" as="geometry">
            <mxRectangle width="256" height="62" as="alternateBounds" />
          </mxGeometry>
        </mxCell>
        <mxCell id="Rrt1pkGHF1JBezEq-9He-19" value="Once the device is turned on, the battery depletes 10% every 50 seconds." style="shape=partialRectangle;html=1;whiteSpace=wrap;connectable=0;strokeColor=inherit;overflow=hidden;fillColor=none;top=0;left=0;bottom=0;right=0;pointerEvents=1;" parent="Rrt1pkGHF1JBezEq-9He-14" vertex="1">
          <mxGeometry x="936" width="244" height="62" as="geometry">
            <mxRectangle width="244" height="62" as="alternateBounds" />
          </mxGeometry>
        </mxCell>
        <mxCell id="Rrt1pkGHF1JBezEq-9He-20" value="" style="shape=tableRow;horizontal=0;startSize=0;swimlaneHead=0;swimlaneBody=0;strokeColor=inherit;top=0;left=0;bottom=0;right=0;collapsible=0;dropTarget=0;fillColor=none;points=[[0,0.5],[1,0.5]];portConstraint=eastwest;" parent="Rrt1pkGHF1JBezEq-9He-1" vertex="1">
          <mxGeometry y="182" width="1180" height="62" as="geometry" />
        </mxCell>
        <mxCell id="Rrt1pkGHF1JBezEq-9He-21" value="3" style="shape=partialRectangle;html=1;whiteSpace=wrap;connectable=0;strokeColor=inherit;overflow=hidden;fillColor=none;top=0;left=0;bottom=0;right=0;pointerEvents=1;" parent="Rrt1pkGHF1JBezEq-9He-20" vertex="1">
          <mxGeometry width="109" height="62" as="geometry">
            <mxRectangle width="109" height="62" as="alternateBounds" />
          </mxGeometry>
        </mxCell>
        <mxCell id="Rrt1pkGHF1JBezEq-9He-22" value="Once the devices battery reaches 20%, a warning message is displayed&amp;nbsp;" style="shape=partialRectangle;html=1;whiteSpace=wrap;connectable=0;strokeColor=inherit;overflow=hidden;fillColor=none;top=0;left=0;bottom=0;right=0;pointerEvents=1;" parent="Rrt1pkGHF1JBezEq-9He-20" vertex="1">
          <mxGeometry x="109" width="352" height="62" as="geometry">
            <mxRectangle width="352" height="62" as="alternateBounds" />
          </mxGeometry>
        </mxCell>
        <mxCell id="Rrt1pkGHF1JBezEq-9He-23" value="Session Interruption due to Low Battery (UC7)" style="shape=partialRectangle;html=1;whiteSpace=wrap;connectable=0;strokeColor=inherit;overflow=hidden;fillColor=none;top=0;left=0;bottom=0;right=0;pointerEvents=1;" parent="Rrt1pkGHF1JBezEq-9He-20" vertex="1">
          <mxGeometry x="461" width="219" height="62" as="geometry">
            <mxRectangle width="219" height="62" as="alternateBounds" />
          </mxGeometry>
        </mxCell>
        <mxCell id="Rrt1pkGHF1JBezEq-9He-24" value="MainWindow, MainWindow.ui" style="shape=partialRectangle;html=1;whiteSpace=wrap;connectable=0;strokeColor=inherit;overflow=hidden;fillColor=none;top=0;left=0;bottom=0;right=0;pointerEvents=1;" parent="Rrt1pkGHF1JBezEq-9He-20" vertex="1">
          <mxGeometry x="680" width="256" height="62" as="geometry">
            <mxRectangle width="256" height="62" as="alternateBounds" />
          </mxGeometry>
        </mxCell>
        <mxCell id="Rrt1pkGHF1JBezEq-9He-25" value="There is a message in red that pops up once the battery is equal or less than 20%." style="shape=partialRectangle;html=1;whiteSpace=wrap;connectable=0;strokeColor=inherit;overflow=hidden;fillColor=none;top=0;left=0;bottom=0;right=0;pointerEvents=1;" parent="Rrt1pkGHF1JBezEq-9He-20" vertex="1">
          <mxGeometry x="936" width="244" height="62" as="geometry">
            <mxRectangle width="244" height="62" as="alternateBounds" />
          </mxGeometry>
        </mxCell>
        <mxCell id="Rrt1pkGHF1JBezEq-9He-26" value="" style="shape=tableRow;horizontal=0;startSize=0;swimlaneHead=0;swimlaneBody=0;strokeColor=inherit;top=0;left=0;bottom=0;right=0;collapsible=0;dropTarget=0;fillColor=none;points=[[0,0.5],[1,0.5]];portConstraint=eastwest;" parent="Rrt1pkGHF1JBezEq-9He-1" vertex="1">
          <mxGeometry y="244" width="1180" height="61" as="geometry" />
        </mxCell>
        <mxCell id="Rrt1pkGHF1JBezEq-9He-27" value="4" style="shape=partialRectangle;html=1;whiteSpace=wrap;connectable=0;strokeColor=inherit;overflow=hidden;fillColor=none;top=0;left=0;bottom=0;right=0;pointerEvents=1;" parent="Rrt1pkGHF1JBezEq-9He-26" vertex="1">
          <mxGeometry width="109" height="61" as="geometry">
            <mxRectangle width="109" height="61" as="alternateBounds" />
          </mxGeometry>
        </mxCell>
        <mxCell id="Rrt1pkGHF1JBezEq-9He-28" value="The Neureset device turns off if the battery has been fully depleted" style="shape=partialRectangle;html=1;whiteSpace=wrap;connectable=0;strokeColor=inherit;overflow=hidden;fillColor=none;top=0;left=0;bottom=0;right=0;pointerEvents=1;" parent="Rrt1pkGHF1JBezEq-9He-26" vertex="1">
          <mxGeometry x="109" width="352" height="61" as="geometry">
            <mxRectangle width="352" height="61" as="alternateBounds" />
          </mxGeometry>
        </mxCell>
        <mxCell id="Rrt1pkGHF1JBezEq-9He-29" value="Session Interruption due to Low Battery (UC7)" style="shape=partialRectangle;html=1;whiteSpace=wrap;connectable=0;strokeColor=inherit;overflow=hidden;fillColor=none;top=0;left=0;bottom=0;right=0;pointerEvents=1;" parent="Rrt1pkGHF1JBezEq-9He-26" vertex="1">
          <mxGeometry x="461" width="219" height="61" as="geometry">
            <mxRectangle width="219" height="61" as="alternateBounds" />
          </mxGeometry>
        </mxCell>
        <mxCell id="Rrt1pkGHF1JBezEq-9He-30" value="MainWindow, MainWindow.ui" style="shape=partialRectangle;html=1;whiteSpace=wrap;connectable=0;strokeColor=inherit;overflow=hidden;fillColor=none;top=0;left=0;bottom=0;right=0;pointerEvents=1;" parent="Rrt1pkGHF1JBezEq-9He-26" vertex="1">
          <mxGeometry x="680" width="256" height="61" as="geometry">
            <mxRectangle width="256" height="61" as="alternateBounds" />
          </mxGeometry>
        </mxCell>
        <mxCell id="Rrt1pkGHF1JBezEq-9He-31" value="The device shuts off once the battery reaches 0%." style="shape=partialRectangle;html=1;whiteSpace=wrap;connectable=0;strokeColor=inherit;overflow=hidden;fillColor=none;top=0;left=0;bottom=0;right=0;pointerEvents=1;" parent="Rrt1pkGHF1JBezEq-9He-26" vertex="1">
          <mxGeometry x="936" width="244" height="61" as="geometry">
            <mxRectangle width="244" height="61" as="alternateBounds" />
          </mxGeometry>
        </mxCell>
        <mxCell id="Rrt1pkGHF1JBezEq-9He-32" style="shape=tableRow;horizontal=0;startSize=0;swimlaneHead=0;swimlaneBody=0;strokeColor=inherit;top=0;left=0;bottom=0;right=0;collapsible=0;dropTarget=0;fillColor=none;points=[[0,0.5],[1,0.5]];portConstraint=eastwest;" parent="Rrt1pkGHF1JBezEq-9He-1" vertex="1">
          <mxGeometry y="305" width="1180" height="62" as="geometry" />
        </mxCell>
        <mxCell id="Rrt1pkGHF1JBezEq-9He-33" value="5" style="shape=partialRectangle;html=1;whiteSpace=wrap;connectable=0;strokeColor=inherit;overflow=hidden;fillColor=none;top=0;left=0;bottom=0;right=0;pointerEvents=1;" parent="Rrt1pkGHF1JBezEq-9He-32" vertex="1">
          <mxGeometry width="109" height="62" as="geometry">
            <mxRectangle width="109" height="62" as="alternateBounds" />
          </mxGeometry>
        </mxCell>
        <mxCell id="Rrt1pkGHF1JBezEq-9He-34" value="The Neureset device can be charged to add battery power" style="shape=partialRectangle;html=1;whiteSpace=wrap;connectable=0;strokeColor=inherit;overflow=hidden;fillColor=none;top=0;left=0;bottom=0;right=0;pointerEvents=1;" parent="Rrt1pkGHF1JBezEq-9He-32" vertex="1">
          <mxGeometry x="109" width="352" height="62" as="geometry">
            <mxRectangle width="352" height="62" as="alternateBounds" />
          </mxGeometry>
        </mxCell>
        <mxCell id="Rrt1pkGHF1JBezEq-9He-35" value="Session Interruption due to Low Battery (UC7)" style="shape=partialRectangle;html=1;whiteSpace=wrap;connectable=0;strokeColor=inherit;overflow=hidden;fillColor=none;top=0;left=0;bottom=0;right=0;pointerEvents=1;" parent="Rrt1pkGHF1JBezEq-9He-32" vertex="1">
          <mxGeometry x="461" width="219" height="62" as="geometry">
            <mxRectangle width="219" height="62" as="alternateBounds" />
          </mxGeometry>
        </mxCell>
        <mxCell id="Rrt1pkGHF1JBezEq-9He-36" value="MainWindow, MainWindow.ui" style="shape=partialRectangle;html=1;whiteSpace=wrap;connectable=0;strokeColor=inherit;overflow=hidden;fillColor=none;top=0;left=0;bottom=0;right=0;pointerEvents=1;" parent="Rrt1pkGHF1JBezEq-9He-32" vertex="1">
          <mxGeometry x="680" width="256" height="62" as="geometry">
            <mxRectangle width="256" height="62" as="alternateBounds" />
          </mxGeometry>
        </mxCell>
        <mxCell id="Rrt1pkGHF1JBezEq-9He-37" value="Click the power source on the device to simulate it being charged. It adds 10% battery every 50 seconds." style="shape=partialRectangle;html=1;whiteSpace=wrap;connectable=0;strokeColor=inherit;overflow=hidden;fillColor=none;top=0;left=0;bottom=0;right=0;pointerEvents=1;" parent="Rrt1pkGHF1JBezEq-9He-32" vertex="1">
          <mxGeometry x="936" width="244" height="62" as="geometry">
            <mxRectangle width="244" height="62" as="alternateBounds" />
          </mxGeometry>
        </mxCell>
        <mxCell id="Rrt1pkGHF1JBezEq-9He-38" style="shape=tableRow;horizontal=0;startSize=0;swimlaneHead=0;swimlaneBody=0;strokeColor=inherit;top=0;left=0;bottom=0;right=0;collapsible=0;dropTarget=0;fillColor=none;points=[[0,0.5],[1,0.5]];portConstraint=eastwest;" parent="Rrt1pkGHF1JBezEq-9He-1" vertex="1">
          <mxGeometry y="367" width="1180" height="62" as="geometry" />
        </mxCell>
        <mxCell id="Rrt1pkGHF1JBezEq-9He-39" value="6" style="shape=partialRectangle;html=1;whiteSpace=wrap;connectable=0;strokeColor=inherit;overflow=hidden;fillColor=none;top=0;left=0;bottom=0;right=0;pointerEvents=1;" parent="Rrt1pkGHF1JBezEq-9He-38" vertex="1">
          <mxGeometry width="109" height="62" as="geometry">
            <mxRectangle width="109" height="62" as="alternateBounds" />
          </mxGeometry>
        </mxCell>
        <mxCell id="Rrt1pkGHF1JBezEq-9He-40" value="Once turned on, the device displays the authors name for a little bit" style="shape=partialRectangle;html=1;whiteSpace=wrap;connectable=0;strokeColor=inherit;overflow=hidden;fillColor=none;top=0;left=0;bottom=0;right=0;pointerEvents=1;" parent="Rrt1pkGHF1JBezEq-9He-38" vertex="1">
          <mxGeometry x="109" width="352" height="62" as="geometry">
            <mxRectangle width="352" height="62" as="alternateBounds" />
          </mxGeometry>
        </mxCell>
        <mxCell id="Rrt1pkGHF1JBezEq-9He-41" value="N/A" style="shape=partialRectangle;html=1;whiteSpace=wrap;connectable=0;strokeColor=inherit;overflow=hidden;fillColor=none;top=0;left=0;bottom=0;right=0;pointerEvents=1;" parent="Rrt1pkGHF1JBezEq-9He-38" vertex="1">
          <mxGeometry x="461" width="219" height="62" as="geometry">
            <mxRectangle width="219" height="62" as="alternateBounds" />
          </mxGeometry>
        </mxCell>
        <mxCell id="Rrt1pkGHF1JBezEq-9He-42" value="MainWindow, MainWindow.ui" style="shape=partialRectangle;html=1;whiteSpace=wrap;connectable=0;strokeColor=inherit;overflow=hidden;fillColor=none;top=0;left=0;bottom=0;right=0;pointerEvents=1;" parent="Rrt1pkGHF1JBezEq-9He-38" vertex="1">
          <mxGeometry x="680" width="256" height="62" as="geometry">
            <mxRectangle width="256" height="62" as="alternateBounds" />
          </mxGeometry>
        </mxCell>
        <mxCell id="Rrt1pkGHF1JBezEq-9He-43" value="Turn on the device and look at its display" style="shape=partialRectangle;html=1;whiteSpace=wrap;connectable=0;strokeColor=inherit;overflow=hidden;fillColor=none;top=0;left=0;bottom=0;right=0;pointerEvents=1;" parent="Rrt1pkGHF1JBezEq-9He-38" vertex="1">
          <mxGeometry x="936" width="244" height="62" as="geometry">
            <mxRectangle width="244" height="62" as="alternateBounds" />
          </mxGeometry>
        </mxCell>
        <mxCell id="Rrt1pkGHF1JBezEq-9He-44" style="shape=tableRow;horizontal=0;startSize=0;swimlaneHead=0;swimlaneBody=0;strokeColor=inherit;top=0;left=0;bottom=0;right=0;collapsible=0;dropTarget=0;fillColor=none;points=[[0,0.5],[1,0.5]];portConstraint=eastwest;" parent="Rrt1pkGHF1JBezEq-9He-1" vertex="1">
          <mxGeometry y="429" width="1180" height="62" as="geometry" />
        </mxCell>
        <mxCell id="Rrt1pkGHF1JBezEq-9He-45" value="7" style="shape=partialRectangle;html=1;whiteSpace=wrap;connectable=0;strokeColor=inherit;overflow=hidden;fillColor=none;top=0;left=0;bottom=0;right=0;pointerEvents=1;" parent="Rrt1pkGHF1JBezEq-9He-44" vertex="1">
          <mxGeometry width="109" height="62" as="geometry">
            <mxRectangle width="109" height="62" as="alternateBounds" />
          </mxGeometry>
        </mxCell>
        <mxCell id="Rrt1pkGHF1JBezEq-9He-46" value="The device displays the three menu options after it has been turned on and has shown the authors" style="shape=partialRectangle;html=1;whiteSpace=wrap;connectable=0;strokeColor=inherit;overflow=hidden;fillColor=none;top=0;left=0;bottom=0;right=0;pointerEvents=1;" parent="Rrt1pkGHF1JBezEq-9He-44" vertex="1">
          <mxGeometry x="109" width="352" height="62" as="geometry">
            <mxRectangle width="352" height="62" as="alternateBounds" />
          </mxGeometry>
        </mxCell>
        <mxCell id="Rrt1pkGHF1JBezEq-9He-47" value="N/A" style="shape=partialRectangle;html=1;whiteSpace=wrap;connectable=0;strokeColor=inherit;overflow=hidden;fillColor=none;top=0;left=0;bottom=0;right=0;pointerEvents=1;" parent="Rrt1pkGHF1JBezEq-9He-44" vertex="1">
          <mxGeometry x="461" width="219" height="62" as="geometry">
            <mxRectangle width="219" height="62" as="alternateBounds" />
          </mxGeometry>
        </mxCell>
        <mxCell id="Rrt1pkGHF1JBezEq-9He-48" value="MainWindow, MainWindow.ui, handler" style="shape=partialRectangle;html=1;whiteSpace=wrap;connectable=0;strokeColor=inherit;overflow=hidden;fillColor=none;top=0;left=0;bottom=0;right=0;pointerEvents=1;" parent="Rrt1pkGHF1JBezEq-9He-44" vertex="1">
          <mxGeometry x="680" width="256" height="62" as="geometry">
            <mxRectangle width="256" height="62" as="alternateBounds" />
          </mxGeometry>
        </mxCell>
        <mxCell id="Rrt1pkGHF1JBezEq-9He-49" value="Turn on the device, wait for the authors name to vanish and see the three options" style="shape=partialRectangle;html=1;whiteSpace=wrap;connectable=0;strokeColor=inherit;overflow=hidden;fillColor=none;top=0;left=0;bottom=0;right=0;pointerEvents=1;" parent="Rrt1pkGHF1JBezEq-9He-44" vertex="1">
          <mxGeometry x="936" width="244" height="62" as="geometry">
            <mxRectangle width="244" height="62" as="alternateBounds" />
          </mxGeometry>
        </mxCell>
        <mxCell id="Rrt1pkGHF1JBezEq-9He-50" style="shape=tableRow;horizontal=0;startSize=0;swimlaneHead=0;swimlaneBody=0;strokeColor=inherit;top=0;left=0;bottom=0;right=0;collapsible=0;dropTarget=0;fillColor=none;points=[[0,0.5],[1,0.5]];portConstraint=eastwest;" parent="Rrt1pkGHF1JBezEq-9He-1" vertex="1">
          <mxGeometry y="491" width="1180" height="59" as="geometry" />
        </mxCell>
        <mxCell id="Rrt1pkGHF1JBezEq-9He-51" value="8" style="shape=partialRectangle;html=1;whiteSpace=wrap;connectable=0;strokeColor=inherit;overflow=hidden;fillColor=none;top=0;left=0;bottom=0;right=0;pointerEvents=1;" parent="Rrt1pkGHF1JBezEq-9He-50" vertex="1">
          <mxGeometry width="109" height="59" as="geometry">
            <mxRectangle width="109" height="59" as="alternateBounds" />
          </mxGeometry>
        </mxCell>
        <mxCell id="Rrt1pkGHF1JBezEq-9He-52" value="The user can choose one of the three menu options using the device buttons" style="shape=partialRectangle;html=1;whiteSpace=wrap;connectable=0;strokeColor=inherit;overflow=hidden;fillColor=none;top=0;left=0;bottom=0;right=0;pointerEvents=1;" parent="Rrt1pkGHF1JBezEq-9He-50" vertex="1">
          <mxGeometry x="109" width="352" height="59" as="geometry">
            <mxRectangle width="352" height="59" as="alternateBounds" />
          </mxGeometry>
        </mxCell>
        <mxCell id="Rrt1pkGHF1JBezEq-9He-53" value="N/A" style="shape=partialRectangle;html=1;whiteSpace=wrap;connectable=0;strokeColor=inherit;overflow=hidden;fillColor=none;top=0;left=0;bottom=0;right=0;pointerEvents=1;" parent="Rrt1pkGHF1JBezEq-9He-50" vertex="1">
          <mxGeometry x="461" width="219" height="59" as="geometry">
            <mxRectangle width="219" height="59" as="alternateBounds" />
          </mxGeometry>
        </mxCell>
        <mxCell id="Rrt1pkGHF1JBezEq-9He-54" value="MainWindow, MainWindow.ui, handler" style="shape=partialRectangle;html=1;whiteSpace=wrap;connectable=0;strokeColor=inherit;overflow=hidden;fillColor=none;top=0;left=0;bottom=0;right=0;pointerEvents=1;" parent="Rrt1pkGHF1JBezEq-9He-50" vertex="1">
          <mxGeometry x="680" width="256" height="59" as="geometry">
            <mxRectangle width="256" height="59" as="alternateBounds" />
          </mxGeometry>
        </mxCell>
        <mxCell id="Rrt1pkGHF1JBezEq-9He-55" value="Click the up and down arrows on the device to navigate which option to choose. Once the option has been chosen, click the ok button." style="shape=partialRectangle;html=1;whiteSpace=wrap;connectable=0;strokeColor=inherit;overflow=hidden;fillColor=none;top=0;left=0;bottom=0;right=0;pointerEvents=1;" parent="Rrt1pkGHF1JBezEq-9He-50" vertex="1">
          <mxGeometry x="936" width="244" height="59" as="geometry">
            <mxRectangle width="244" height="59" as="alternateBounds" />
          </mxGeometry>
        </mxCell>
        <mxCell id="Rrt1pkGHF1JBezEq-9He-56" style="shape=tableRow;horizontal=0;startSize=0;swimlaneHead=0;swimlaneBody=0;strokeColor=inherit;top=0;left=0;bottom=0;right=0;collapsible=0;dropTarget=0;fillColor=none;points=[[0,0.5],[1,0.5]];portConstraint=eastwest;" parent="Rrt1pkGHF1JBezEq-9He-1" vertex="1">
          <mxGeometry y="550" width="1180" height="62" as="geometry" />
        </mxCell>
        <mxCell id="Rrt1pkGHF1JBezEq-9He-57" value="9" style="shape=partialRectangle;html=1;whiteSpace=wrap;connectable=0;strokeColor=inherit;overflow=hidden;fillColor=none;top=0;left=0;bottom=0;right=0;pointerEvents=1;" parent="Rrt1pkGHF1JBezEq-9He-56" vertex="1">
          <mxGeometry width="109" height="62" as="geometry">
            <mxRectangle width="109" height="62" as="alternateBounds" />
          </mxGeometry>
        </mxCell>
        <mxCell id="Rrt1pkGHF1JBezEq-9He-58" value="The user chose to view the session log history" style="shape=partialRectangle;html=1;whiteSpace=wrap;connectable=0;strokeColor=inherit;overflow=hidden;fillColor=none;top=0;left=0;bottom=0;right=0;pointerEvents=1;" parent="Rrt1pkGHF1JBezEq-9He-56" vertex="1">
          <mxGeometry x="109" width="352" height="62" as="geometry">
            <mxRectangle width="352" height="62" as="alternateBounds" />
          </mxGeometry>
        </mxCell>
        <mxCell id="Rrt1pkGHF1JBezEq-9He-59" value="Session Log Menu Option (UC3)" style="shape=partialRectangle;html=1;whiteSpace=wrap;connectable=0;strokeColor=inherit;overflow=hidden;fillColor=none;top=0;left=0;bottom=0;right=0;pointerEvents=1;" parent="Rrt1pkGHF1JBezEq-9He-56" vertex="1">
          <mxGeometry x="461" width="219" height="62" as="geometry">
            <mxRectangle width="219" height="62" as="alternateBounds" />
          </mxGeometry>
        </mxCell>
        <mxCell id="Rrt1pkGHF1JBezEq-9He-60" value="MainWindow, MainWindow.ui, handler, session_log, SessionData" style="shape=partialRectangle;html=1;whiteSpace=wrap;connectable=0;strokeColor=inherit;overflow=hidden;fillColor=none;top=0;left=0;bottom=0;right=0;pointerEvents=1;" parent="Rrt1pkGHF1JBezEq-9He-56" vertex="1">
          <mxGeometry x="680" width="256" height="62" as="geometry">
            <mxRectangle width="256" height="62" as="alternateBounds" />
          </mxGeometry>
        </mxCell>
        <mxCell id="Rrt1pkGHF1JBezEq-9He-61" value="The user can see the session log data (number, date, start time and end time)." style="shape=partialRectangle;html=1;whiteSpace=wrap;connectable=0;strokeColor=inherit;overflow=hidden;fillColor=none;top=0;left=0;bottom=0;right=0;pointerEvents=1;" parent="Rrt1pkGHF1JBezEq-9He-56" vertex="1">
          <mxGeometry x="936" width="244" height="62" as="geometry">
            <mxRectangle width="244" height="62" as="alternateBounds" />
          </mxGeometry>
        </mxCell>
        <mxCell id="Rrt1pkGHF1JBezEq-9He-62" style="shape=tableRow;horizontal=0;startSize=0;swimlaneHead=0;swimlaneBody=0;strokeColor=inherit;top=0;left=0;bottom=0;right=0;collapsible=0;dropTarget=0;fillColor=none;points=[[0,0.5],[1,0.5]];portConstraint=eastwest;" parent="Rrt1pkGHF1JBezEq-9He-1" vertex="1">
          <mxGeometry y="612" width="1180" height="62" as="geometry" />
        </mxCell>
        <mxCell id="Rrt1pkGHF1JBezEq-9He-63" value="10" style="shape=partialRectangle;html=1;whiteSpace=wrap;connectable=0;strokeColor=inherit;overflow=hidden;fillColor=none;top=0;left=0;bottom=0;right=0;pointerEvents=1;" parent="Rrt1pkGHF1JBezEq-9He-62" vertex="1">
          <mxGeometry width="109" height="62" as="geometry">
            <mxRectangle width="109" height="62" as="alternateBounds" />
          </mxGeometry>
        </mxCell>
        <mxCell id="Rrt1pkGHF1JBezEq-9He-64" value="The user can navigate through the session logs to see all of them&amp;nbsp;" style="shape=partialRectangle;html=1;whiteSpace=wrap;connectable=0;strokeColor=inherit;overflow=hidden;fillColor=none;top=0;left=0;bottom=0;right=0;pointerEvents=1;" parent="Rrt1pkGHF1JBezEq-9He-62" vertex="1">
          <mxGeometry x="109" width="352" height="62" as="geometry">
            <mxRectangle width="352" height="62" as="alternateBounds" />
          </mxGeometry>
        </mxCell>
        <mxCell id="Rrt1pkGHF1JBezEq-9He-65" value="Session Log Menu Option (UC3)" style="shape=partialRectangle;html=1;whiteSpace=wrap;connectable=0;strokeColor=inherit;overflow=hidden;fillColor=none;top=0;left=0;bottom=0;right=0;pointerEvents=1;" parent="Rrt1pkGHF1JBezEq-9He-62" vertex="1">
          <mxGeometry x="461" width="219" height="62" as="geometry">
            <mxRectangle width="219" height="62" as="alternateBounds" />
          </mxGeometry>
        </mxCell>
        <mxCell id="Rrt1pkGHF1JBezEq-9He-66" value="MainWindow, MainWindow.ui, handler, session_log, SessionData" style="shape=partialRectangle;html=1;whiteSpace=wrap;connectable=0;strokeColor=inherit;overflow=hidden;fillColor=none;top=0;left=0;bottom=0;right=0;pointerEvents=1;" parent="Rrt1pkGHF1JBezEq-9He-62" vertex="1">
          <mxGeometry x="680" width="256" height="62" as="geometry">
            <mxRectangle width="256" height="62" as="alternateBounds" />
          </mxGeometry>
        </mxCell>
        <mxCell id="Rrt1pkGHF1JBezEq-9He-67" value="The user can click the up and down arrows to see all the session log data&amp;nbsp;" style="shape=partialRectangle;html=1;whiteSpace=wrap;connectable=0;strokeColor=inherit;overflow=hidden;fillColor=none;top=0;left=0;bottom=0;right=0;pointerEvents=1;" parent="Rrt1pkGHF1JBezEq-9He-62" vertex="1">
          <mxGeometry x="936" width="244" height="62" as="geometry">
            <mxRectangle width="244" height="62" as="alternateBounds" />
          </mxGeometry>
        </mxCell>
        <mxCell id="tTmwREa-qUHU4TCVnqNG-21" style="shape=tableRow;horizontal=0;startSize=0;swimlaneHead=0;swimlaneBody=0;strokeColor=inherit;top=0;left=0;bottom=0;right=0;collapsible=0;dropTarget=0;fillColor=none;points=[[0,0.5],[1,0.5]];portConstraint=eastwest;" vertex="1" parent="Rrt1pkGHF1JBezEq-9He-1">
          <mxGeometry y="674" width="1180" height="62" as="geometry" />
        </mxCell>
        <mxCell id="tTmwREa-qUHU4TCVnqNG-22" value="11" style="shape=partialRectangle;html=1;whiteSpace=wrap;connectable=0;strokeColor=inherit;overflow=hidden;fillColor=none;top=0;left=0;bottom=0;right=0;pointerEvents=1;" vertex="1" parent="tTmwREa-qUHU4TCVnqNG-21">
          <mxGeometry width="109" height="62" as="geometry">
            <mxRectangle width="109" height="62" as="alternateBounds" />
          </mxGeometry>
        </mxCell>
        <mxCell id="tTmwREa-qUHU4TCVnqNG-23" value="The device display shows that it is empty if there are no session logs" style="shape=partialRectangle;html=1;whiteSpace=wrap;connectable=0;strokeColor=inherit;overflow=hidden;fillColor=none;top=0;left=0;bottom=0;right=0;pointerEvents=1;" vertex="1" parent="tTmwREa-qUHU4TCVnqNG-21">
          <mxGeometry x="109" width="352" height="62" as="geometry">
            <mxRectangle width="352" height="62" as="alternateBounds" />
          </mxGeometry>
        </mxCell>
        <mxCell id="tTmwREa-qUHU4TCVnqNG-24" value="Session Log Menu Option (UC3)" style="shape=partialRectangle;html=1;whiteSpace=wrap;connectable=0;strokeColor=inherit;overflow=hidden;fillColor=none;top=0;left=0;bottom=0;right=0;pointerEvents=1;" vertex="1" parent="tTmwREa-qUHU4TCVnqNG-21">
          <mxGeometry x="461" width="219" height="62" as="geometry">
            <mxRectangle width="219" height="62" as="alternateBounds" />
          </mxGeometry>
        </mxCell>
        <mxCell id="tTmwREa-qUHU4TCVnqNG-25" value="MainWindow, MainWindow.ui, handler, session_log, SessionData" style="shape=partialRectangle;html=1;whiteSpace=wrap;connectable=0;strokeColor=inherit;overflow=hidden;fillColor=none;top=0;left=0;bottom=0;right=0;pointerEvents=1;" vertex="1" parent="tTmwREa-qUHU4TCVnqNG-21">
          <mxGeometry x="680" width="256" height="62" as="geometry">
            <mxRectangle width="256" height="62" as="alternateBounds" />
          </mxGeometry>
        </mxCell>
        <mxCell id="tTmwREa-qUHU4TCVnqNG-26" value="The user goes in the session logs at the very start when the device is turned on" style="shape=partialRectangle;html=1;whiteSpace=wrap;connectable=0;strokeColor=inherit;overflow=hidden;fillColor=none;top=0;left=0;bottom=0;right=0;pointerEvents=1;" vertex="1" parent="tTmwREa-qUHU4TCVnqNG-21">
          <mxGeometry x="936" width="244" height="62" as="geometry">
            <mxRectangle width="244" height="62" as="alternateBounds" />
          </mxGeometry>
        </mxCell>
        <mxCell id="Rrt1pkGHF1JBezEq-9He-68" style="shape=tableRow;horizontal=0;startSize=0;swimlaneHead=0;swimlaneBody=0;strokeColor=inherit;top=0;left=0;bottom=0;right=0;collapsible=0;dropTarget=0;fillColor=none;points=[[0,0.5],[1,0.5]];portConstraint=eastwest;" parent="Rrt1pkGHF1JBezEq-9He-1" vertex="1">
          <mxGeometry y="736" width="1180" height="62" as="geometry" />
        </mxCell>
        <mxCell id="Rrt1pkGHF1JBezEq-9He-69" value="12" style="shape=partialRectangle;html=1;whiteSpace=wrap;connectable=0;strokeColor=inherit;overflow=hidden;fillColor=none;top=0;left=0;bottom=0;right=0;pointerEvents=1;" parent="Rrt1pkGHF1JBezEq-9He-68" vertex="1">
          <mxGeometry width="109" height="62" as="geometry">
            <mxRectangle width="109" height="62" as="alternateBounds" />
          </mxGeometry>
        </mxCell>
        <mxCell id="Rrt1pkGHF1JBezEq-9He-70" value="The user can view the session logs in more details if they connect the Neureset device to the PC" style="shape=partialRectangle;html=1;whiteSpace=wrap;connectable=0;strokeColor=inherit;overflow=hidden;fillColor=none;top=0;left=0;bottom=0;right=0;pointerEvents=1;" parent="Rrt1pkGHF1JBezEq-9He-68" vertex="1">
          <mxGeometry x="109" width="352" height="62" as="geometry">
            <mxRectangle width="352" height="62" as="alternateBounds" />
          </mxGeometry>
        </mxCell>
        <mxCell id="Rrt1pkGHF1JBezEq-9He-71" value="&lt;span style=&quot;color: rgb(0, 0, 0); font-family: Helvetica; font-size: 12px; font-style: normal; font-variant-ligatures: normal; font-variant-caps: normal; font-weight: 400; letter-spacing: normal; orphans: 2; text-align: center; text-indent: 0px; text-transform: none; widows: 2; word-spacing: 0px; -webkit-text-stroke-width: 0px; white-space: normal; background-color: rgb(251, 251, 251); text-decoration-thickness: initial; text-decoration-style: initial; text-decoration-color: initial; display: inline !important; float: none;&quot;&gt;Session Log Menu Option (UC3)&lt;/span&gt;" style="shape=partialRectangle;html=1;whiteSpace=wrap;connectable=0;strokeColor=inherit;overflow=hidden;fillColor=none;top=0;left=0;bottom=0;right=0;pointerEvents=1;" parent="Rrt1pkGHF1JBezEq-9He-68" vertex="1">
          <mxGeometry x="461" width="219" height="62" as="geometry">
            <mxRectangle width="219" height="62" as="alternateBounds" />
          </mxGeometry>
        </mxCell>
        <mxCell id="Rrt1pkGHF1JBezEq-9He-72" value="MainWindow, MainWindow.ui, handler, session_log, SessionData&amp;nbsp;" style="shape=partialRectangle;html=1;whiteSpace=wrap;connectable=0;strokeColor=inherit;overflow=hidden;fillColor=none;top=0;left=0;bottom=0;right=0;pointerEvents=1;" parent="Rrt1pkGHF1JBezEq-9He-68" vertex="1">
          <mxGeometry x="680" width="256" height="62" as="geometry">
            <mxRectangle width="256" height="62" as="alternateBounds" />
          </mxGeometry>
        </mxCell>
        <mxCell id="Rrt1pkGHF1JBezEq-9He-73" value="The user can click the connect button to view the data on the PC output (only if the device is already on)." style="shape=partialRectangle;html=1;whiteSpace=wrap;connectable=0;strokeColor=inherit;overflow=hidden;fillColor=none;top=0;left=0;bottom=0;right=0;pointerEvents=1;" parent="Rrt1pkGHF1JBezEq-9He-68" vertex="1">
          <mxGeometry x="936" width="244" height="62" as="geometry">
            <mxRectangle width="244" height="62" as="alternateBounds" />
          </mxGeometry>
        </mxCell>
        <mxCell id="Rrt1pkGHF1JBezEq-9He-74" style="shape=tableRow;horizontal=0;startSize=0;swimlaneHead=0;swimlaneBody=0;strokeColor=inherit;top=0;left=0;bottom=0;right=0;collapsible=0;dropTarget=0;fillColor=none;points=[[0,0.5],[1,0.5]];portConstraint=eastwest;" parent="Rrt1pkGHF1JBezEq-9He-1" vertex="1">
          <mxGeometry y="798" width="1180" height="62" as="geometry" />
        </mxCell>
        <mxCell id="Rrt1pkGHF1JBezEq-9He-75" value="13" style="shape=partialRectangle;html=1;whiteSpace=wrap;connectable=0;strokeColor=inherit;overflow=hidden;fillColor=none;top=0;left=0;bottom=0;right=0;pointerEvents=1;" parent="Rrt1pkGHF1JBezEq-9He-74" vertex="1">
          <mxGeometry width="109" height="62" as="geometry">
            <mxRectangle width="109" height="62" as="alternateBounds" />
          </mxGeometry>
        </mxCell>
        <mxCell id="Rrt1pkGHF1JBezEq-9He-76" value="The user chose to go into the date and time menu option" style="shape=partialRectangle;html=1;whiteSpace=wrap;connectable=0;strokeColor=inherit;overflow=hidden;fillColor=none;top=0;left=0;bottom=0;right=0;pointerEvents=1;" parent="Rrt1pkGHF1JBezEq-9He-74" vertex="1">
          <mxGeometry x="109" width="352" height="62" as="geometry">
            <mxRectangle width="352" height="62" as="alternateBounds" />
          </mxGeometry>
        </mxCell>
        <mxCell id="Rrt1pkGHF1JBezEq-9He-77" value="Date and Time Menu Option (UC4)" style="shape=partialRectangle;html=1;whiteSpace=wrap;connectable=0;strokeColor=inherit;overflow=hidden;fillColor=none;top=0;left=0;bottom=0;right=0;pointerEvents=1;" parent="Rrt1pkGHF1JBezEq-9He-74" vertex="1">
          <mxGeometry x="461" width="219" height="62" as="geometry">
            <mxRectangle width="219" height="62" as="alternateBounds" />
          </mxGeometry>
        </mxCell>
        <mxCell id="Rrt1pkGHF1JBezEq-9He-78" value="MainWindow, MainWindow.ui, handler, device_settings" style="shape=partialRectangle;html=1;whiteSpace=wrap;connectable=0;strokeColor=inherit;overflow=hidden;fillColor=none;top=0;left=0;bottom=0;right=0;pointerEvents=1;" parent="Rrt1pkGHF1JBezEq-9He-74" vertex="1">
          <mxGeometry x="680" width="256" height="62" as="geometry">
            <mxRectangle width="256" height="62" as="alternateBounds" />
          </mxGeometry>
        </mxCell>
        <mxCell id="Rrt1pkGHF1JBezEq-9He-79" value="The user can manually enter a new data and time using the devices display. Once entered, they click the update button to set it." style="shape=partialRectangle;html=1;whiteSpace=wrap;connectable=0;strokeColor=inherit;overflow=hidden;fillColor=none;top=0;left=0;bottom=0;right=0;pointerEvents=1;" parent="Rrt1pkGHF1JBezEq-9He-74" vertex="1">
          <mxGeometry x="936" width="244" height="62" as="geometry">
            <mxRectangle width="244" height="62" as="alternateBounds" />
          </mxGeometry>
        </mxCell>
        <mxCell id="Rrt1pkGHF1JBezEq-9He-80" style="shape=tableRow;horizontal=0;startSize=0;swimlaneHead=0;swimlaneBody=0;strokeColor=inherit;top=0;left=0;bottom=0;right=0;collapsible=0;dropTarget=0;fillColor=none;points=[[0,0.5],[1,0.5]];portConstraint=eastwest;" parent="Rrt1pkGHF1JBezEq-9He-1" vertex="1">
          <mxGeometry y="860" width="1180" height="62" as="geometry" />
        </mxCell>
        <mxCell id="Rrt1pkGHF1JBezEq-9He-81" value="14" style="shape=partialRectangle;html=1;whiteSpace=wrap;connectable=0;strokeColor=inherit;overflow=hidden;fillColor=none;top=0;left=0;bottom=0;right=0;pointerEvents=1;" parent="Rrt1pkGHF1JBezEq-9He-80" vertex="1">
          <mxGeometry width="109" height="62" as="geometry">
            <mxRectangle width="109" height="62" as="alternateBounds" />
          </mxGeometry>
        </mxCell>
        <mxCell id="Rrt1pkGHF1JBezEq-9He-82" value="The user chose to go into the add session menu option" style="shape=partialRectangle;html=1;whiteSpace=wrap;connectable=0;strokeColor=inherit;overflow=hidden;fillColor=none;top=0;left=0;bottom=0;right=0;pointerEvents=1;" parent="Rrt1pkGHF1JBezEq-9He-80" vertex="1">
          <mxGeometry x="109" width="352" height="62" as="geometry">
            <mxRectangle width="352" height="62" as="alternateBounds" />
          </mxGeometry>
        </mxCell>
        <mxCell id="Rrt1pkGHF1JBezEq-9He-83" value="New Session Menu Option (UC2)" style="shape=partialRectangle;html=1;whiteSpace=wrap;connectable=0;strokeColor=inherit;overflow=hidden;fillColor=none;top=0;left=0;bottom=0;right=0;pointerEvents=1;" parent="Rrt1pkGHF1JBezEq-9He-80" vertex="1">
          <mxGeometry x="461" width="219" height="62" as="geometry">
            <mxRectangle width="219" height="62" as="alternateBounds" />
          </mxGeometry>
        </mxCell>
        <mxCell id="Rrt1pkGHF1JBezEq-9He-84" value="MainWindow, MainWindow.ui, handler" style="shape=partialRectangle;html=1;whiteSpace=wrap;connectable=0;strokeColor=inherit;overflow=hidden;fillColor=none;top=0;left=0;bottom=0;right=0;pointerEvents=1;" parent="Rrt1pkGHF1JBezEq-9He-80" vertex="1">
          <mxGeometry x="680" width="256" height="62" as="geometry">
            <mxRectangle width="256" height="62" as="alternateBounds" />
          </mxGeometry>
        </mxCell>
        <mxCell id="Rrt1pkGHF1JBezEq-9He-85" value="The user needs to click contact on to be able to start a session." style="shape=partialRectangle;html=1;whiteSpace=wrap;connectable=0;strokeColor=inherit;overflow=hidden;fillColor=none;top=0;left=0;bottom=0;right=0;pointerEvents=1;" parent="Rrt1pkGHF1JBezEq-9He-80" vertex="1">
          <mxGeometry x="936" width="244" height="62" as="geometry">
            <mxRectangle width="244" height="62" as="alternateBounds" />
          </mxGeometry>
        </mxCell>
        <mxCell id="Rrt1pkGHF1JBezEq-9He-86" style="shape=tableRow;horizontal=0;startSize=0;swimlaneHead=0;swimlaneBody=0;strokeColor=inherit;top=0;left=0;bottom=0;right=0;collapsible=0;dropTarget=0;fillColor=none;points=[[0,0.5],[1,0.5]];portConstraint=eastwest;" parent="Rrt1pkGHF1JBezEq-9He-1" vertex="1">
          <mxGeometry y="922" width="1180" height="62" as="geometry" />
        </mxCell>
        <mxCell id="Rrt1pkGHF1JBezEq-9He-87" value="15" style="shape=partialRectangle;html=1;whiteSpace=wrap;connectable=0;strokeColor=inherit;overflow=hidden;fillColor=none;top=0;left=0;bottom=0;right=0;pointerEvents=1;" parent="Rrt1pkGHF1JBezEq-9He-86" vertex="1">
          <mxGeometry width="109" height="62" as="geometry">
            <mxRectangle width="109" height="62" as="alternateBounds" />
          </mxGeometry>
        </mxCell>
        <mxCell id="Rrt1pkGHF1JBezEq-9He-88" value="The Neureset device starts implementing the session" style="shape=partialRectangle;html=1;whiteSpace=wrap;connectable=0;strokeColor=inherit;overflow=hidden;fillColor=none;top=0;left=0;bottom=0;right=0;pointerEvents=1;" parent="Rrt1pkGHF1JBezEq-9He-86" vertex="1">
          <mxGeometry x="109" width="352" height="62" as="geometry">
            <mxRectangle width="352" height="62" as="alternateBounds" />
          </mxGeometry>
        </mxCell>
        <mxCell id="Rrt1pkGHF1JBezEq-9He-89" value="User Uses Neureset Device (UC1)" style="shape=partialRectangle;html=1;whiteSpace=wrap;connectable=0;strokeColor=inherit;overflow=hidden;fillColor=none;top=0;left=0;bottom=0;right=0;pointerEvents=1;" parent="Rrt1pkGHF1JBezEq-9He-86" vertex="1">
          <mxGeometry x="461" width="219" height="62" as="geometry">
            <mxRectangle width="219" height="62" as="alternateBounds" />
          </mxGeometry>
        </mxCell>
        <mxCell id="Rrt1pkGHF1JBezEq-9He-90" value="MainWindow, MainWindow.ui, handler, sinewavechart, wavefrom_generator,&amp;nbsp;" style="shape=partialRectangle;html=1;whiteSpace=wrap;connectable=0;strokeColor=inherit;overflow=hidden;fillColor=none;top=0;left=0;bottom=0;right=0;pointerEvents=1;" parent="Rrt1pkGHF1JBezEq-9He-86" vertex="1">
          <mxGeometry x="680" width="256" height="62" as="geometry">
            <mxRectangle width="256" height="62" as="alternateBounds" />
          </mxGeometry>
        </mxCell>
        <mxCell id="Rrt1pkGHF1JBezEq-9He-91" value="The device starts a new session, the waveform charts display as well as a timer and progress bar" style="shape=partialRectangle;html=1;whiteSpace=wrap;connectable=0;strokeColor=inherit;overflow=hidden;fillColor=none;top=0;left=0;bottom=0;right=0;pointerEvents=1;" parent="Rrt1pkGHF1JBezEq-9He-86" vertex="1">
          <mxGeometry x="936" width="244" height="62" as="geometry">
            <mxRectangle width="244" height="62" as="alternateBounds" />
          </mxGeometry>
        </mxCell>
        <mxCell id="tTmwREa-qUHU4TCVnqNG-3" style="shape=tableRow;horizontal=0;startSize=0;swimlaneHead=0;swimlaneBody=0;strokeColor=inherit;top=0;left=0;bottom=0;right=0;collapsible=0;dropTarget=0;fillColor=none;points=[[0,0.5],[1,0.5]];portConstraint=eastwest;" vertex="1" parent="Rrt1pkGHF1JBezEq-9He-1">
          <mxGeometry y="984" width="1180" height="62" as="geometry" />
        </mxCell>
        <mxCell id="tTmwREa-qUHU4TCVnqNG-4" value="16" style="shape=partialRectangle;html=1;whiteSpace=wrap;connectable=0;strokeColor=inherit;overflow=hidden;fillColor=none;top=0;left=0;bottom=0;right=0;pointerEvents=1;" vertex="1" parent="tTmwREa-qUHU4TCVnqNG-3">
          <mxGeometry width="109" height="62" as="geometry">
            <mxRectangle width="109" height="62" as="alternateBounds" />
          </mxGeometry>
        </mxCell>
        <mxCell id="tTmwREa-qUHU4TCVnqNG-5" value="The Neureset device turns on a blue light once a session starts" style="shape=partialRectangle;html=1;whiteSpace=wrap;connectable=0;strokeColor=inherit;overflow=hidden;fillColor=none;top=0;left=0;bottom=0;right=0;pointerEvents=1;" vertex="1" parent="tTmwREa-qUHU4TCVnqNG-3">
          <mxGeometry x="109" width="352" height="62" as="geometry">
            <mxRectangle width="352" height="62" as="alternateBounds" />
          </mxGeometry>
        </mxCell>
        <mxCell id="tTmwREa-qUHU4TCVnqNG-6" value="User Uses Neureset Device (UC1)" style="shape=partialRectangle;html=1;whiteSpace=wrap;connectable=0;strokeColor=inherit;overflow=hidden;fillColor=none;top=0;left=0;bottom=0;right=0;pointerEvents=1;" vertex="1" parent="tTmwREa-qUHU4TCVnqNG-3">
          <mxGeometry x="461" width="219" height="62" as="geometry">
            <mxRectangle width="219" height="62" as="alternateBounds" />
          </mxGeometry>
        </mxCell>
        <mxCell id="tTmwREa-qUHU4TCVnqNG-7" value="MainWindow, MainWindow.ui, handler, sinewavechart, wavefrom_generator,&amp;nbsp;" style="shape=partialRectangle;html=1;whiteSpace=wrap;connectable=0;strokeColor=inherit;overflow=hidden;fillColor=none;top=0;left=0;bottom=0;right=0;pointerEvents=1;" vertex="1" parent="tTmwREa-qUHU4TCVnqNG-3">
          <mxGeometry x="680" width="256" height="62" as="geometry">
            <mxRectangle width="256" height="62" as="alternateBounds" />
          </mxGeometry>
        </mxCell>
        <mxCell id="tTmwREa-qUHU4TCVnqNG-8" value="The device shows a blue light&amp;nbsp;" style="shape=partialRectangle;html=1;whiteSpace=wrap;connectable=0;strokeColor=inherit;overflow=hidden;fillColor=none;top=0;left=0;bottom=0;right=0;pointerEvents=1;" vertex="1" parent="tTmwREa-qUHU4TCVnqNG-3">
          <mxGeometry x="936" width="244" height="62" as="geometry">
            <mxRectangle width="244" height="62" as="alternateBounds" />
          </mxGeometry>
        </mxCell>
        <mxCell id="tTmwREa-qUHU4TCVnqNG-9" style="shape=tableRow;horizontal=0;startSize=0;swimlaneHead=0;swimlaneBody=0;strokeColor=inherit;top=0;left=0;bottom=0;right=0;collapsible=0;dropTarget=0;fillColor=none;points=[[0,0.5],[1,0.5]];portConstraint=eastwest;" vertex="1" parent="Rrt1pkGHF1JBezEq-9He-1">
          <mxGeometry y="1046" width="1180" height="62" as="geometry" />
        </mxCell>
        <mxCell id="tTmwREa-qUHU4TCVnqNG-10" value="17" style="shape=partialRectangle;html=1;whiteSpace=wrap;connectable=0;strokeColor=inherit;overflow=hidden;fillColor=none;top=0;left=0;bottom=0;right=0;pointerEvents=1;" vertex="1" parent="tTmwREa-qUHU4TCVnqNG-9">
          <mxGeometry width="109" height="62" as="geometry">
            <mxRectangle width="109" height="62" as="alternateBounds" />
          </mxGeometry>
        </mxCell>
        <mxCell id="tTmwREa-qUHU4TCVnqNG-11" value="Once a treatement session is being delivered, a green light flahshes" style="shape=partialRectangle;html=1;whiteSpace=wrap;connectable=0;strokeColor=inherit;overflow=hidden;fillColor=none;top=0;left=0;bottom=0;right=0;pointerEvents=1;" vertex="1" parent="tTmwREa-qUHU4TCVnqNG-9">
          <mxGeometry x="109" width="352" height="62" as="geometry">
            <mxRectangle width="352" height="62" as="alternateBounds" />
          </mxGeometry>
        </mxCell>
        <mxCell id="tTmwREa-qUHU4TCVnqNG-12" value="User Uses Neureset Device (UC1)" style="shape=partialRectangle;html=1;whiteSpace=wrap;connectable=0;strokeColor=inherit;overflow=hidden;fillColor=none;top=0;left=0;bottom=0;right=0;pointerEvents=1;" vertex="1" parent="tTmwREa-qUHU4TCVnqNG-9">
          <mxGeometry x="461" width="219" height="62" as="geometry">
            <mxRectangle width="219" height="62" as="alternateBounds" />
          </mxGeometry>
        </mxCell>
        <mxCell id="tTmwREa-qUHU4TCVnqNG-13" value="MainWindow, MainWindow.ui, handler, sinewavechart, wavefrom_generator,&amp;nbsp;" style="shape=partialRectangle;html=1;whiteSpace=wrap;connectable=0;strokeColor=inherit;overflow=hidden;fillColor=none;top=0;left=0;bottom=0;right=0;pointerEvents=1;" vertex="1" parent="tTmwREa-qUHU4TCVnqNG-9">
          <mxGeometry x="680" width="256" height="62" as="geometry">
            <mxRectangle width="256" height="62" as="alternateBounds" />
          </mxGeometry>
        </mxCell>
        <mxCell id="tTmwREa-qUHU4TCVnqNG-14" value="The device flashes a green light" style="shape=partialRectangle;html=1;whiteSpace=wrap;connectable=0;strokeColor=inherit;overflow=hidden;fillColor=none;top=0;left=0;bottom=0;right=0;pointerEvents=1;" vertex="1" parent="tTmwREa-qUHU4TCVnqNG-9">
          <mxGeometry x="936" width="244" height="62" as="geometry">
            <mxRectangle width="244" height="62" as="alternateBounds" />
          </mxGeometry>
        </mxCell>
        <mxCell id="Rrt1pkGHF1JBezEq-9He-92" style="shape=tableRow;horizontal=0;startSize=0;swimlaneHead=0;swimlaneBody=0;strokeColor=inherit;top=0;left=0;bottom=0;right=0;collapsible=0;dropTarget=0;fillColor=none;points=[[0,0.5],[1,0.5]];portConstraint=eastwest;" parent="Rrt1pkGHF1JBezEq-9He-1" vertex="1">
          <mxGeometry y="1108" width="1180" height="62" as="geometry" />
        </mxCell>
        <mxCell id="Rrt1pkGHF1JBezEq-9He-93" value="18" style="shape=partialRectangle;html=1;whiteSpace=wrap;connectable=0;strokeColor=inherit;overflow=hidden;fillColor=none;top=0;left=0;bottom=0;right=0;pointerEvents=1;" parent="Rrt1pkGHF1JBezEq-9He-92" vertex="1">
          <mxGeometry width="109" height="62" as="geometry">
            <mxRectangle width="109" height="62" as="alternateBounds" />
          </mxGeometry>
        </mxCell>
        <mxCell id="Rrt1pkGHF1JBezEq-9He-94" value="The device does not have contact with the user during a session" style="shape=partialRectangle;html=1;whiteSpace=wrap;connectable=0;strokeColor=inherit;overflow=hidden;fillColor=none;top=0;left=0;bottom=0;right=0;pointerEvents=1;" parent="Rrt1pkGHF1JBezEq-9He-92" vertex="1">
          <mxGeometry x="109" width="352" height="62" as="geometry">
            <mxRectangle width="352" height="62" as="alternateBounds" />
          </mxGeometry>
        </mxCell>
        <mxCell id="Rrt1pkGHF1JBezEq-9He-95" value="New Session Menu Option (UC2)" style="shape=partialRectangle;html=1;whiteSpace=wrap;connectable=0;strokeColor=inherit;overflow=hidden;fillColor=none;top=0;left=0;bottom=0;right=0;pointerEvents=1;" parent="Rrt1pkGHF1JBezEq-9He-92" vertex="1">
          <mxGeometry x="461" width="219" height="62" as="geometry">
            <mxRectangle width="219" height="62" as="alternateBounds" />
          </mxGeometry>
        </mxCell>
        <mxCell id="Rrt1pkGHF1JBezEq-9He-96" value="MainWindow, MainWindow.ui, handler, sinewavechart, wavefrom_generator,&amp;nbsp;" style="shape=partialRectangle;html=1;whiteSpace=wrap;connectable=0;strokeColor=inherit;overflow=hidden;fillColor=none;top=0;left=0;bottom=0;right=0;pointerEvents=1;" parent="Rrt1pkGHF1JBezEq-9He-92" vertex="1">
          <mxGeometry x="680" width="256" height="62" as="geometry">
            <mxRectangle width="256" height="62" as="alternateBounds" />
          </mxGeometry>
        </mxCell>
        <mxCell id="Rrt1pkGHF1JBezEq-9He-97" value="The user needs to click the contact on button to allow the session to continue." style="shape=partialRectangle;html=1;whiteSpace=wrap;connectable=0;strokeColor=inherit;overflow=hidden;fillColor=none;top=0;left=0;bottom=0;right=0;pointerEvents=1;" parent="Rrt1pkGHF1JBezEq-9He-92" vertex="1">
          <mxGeometry x="936" width="244" height="62" as="geometry">
            <mxRectangle width="244" height="62" as="alternateBounds" />
          </mxGeometry>
        </mxCell>
        <mxCell id="tTmwREa-qUHU4TCVnqNG-15" style="shape=tableRow;horizontal=0;startSize=0;swimlaneHead=0;swimlaneBody=0;strokeColor=inherit;top=0;left=0;bottom=0;right=0;collapsible=0;dropTarget=0;fillColor=none;points=[[0,0.5],[1,0.5]];portConstraint=eastwest;" vertex="1" parent="Rrt1pkGHF1JBezEq-9He-1">
          <mxGeometry y="1170" width="1180" height="62" as="geometry" />
        </mxCell>
        <mxCell id="tTmwREa-qUHU4TCVnqNG-16" value="19" style="shape=partialRectangle;html=1;whiteSpace=wrap;connectable=0;strokeColor=inherit;overflow=hidden;fillColor=none;top=0;left=0;bottom=0;right=0;pointerEvents=1;" vertex="1" parent="tTmwREa-qUHU4TCVnqNG-15">
          <mxGeometry width="109" height="62" as="geometry">
            <mxRectangle width="109" height="62" as="alternateBounds" />
          </mxGeometry>
        </mxCell>
        <mxCell id="tTmwREa-qUHU4TCVnqNG-17" value="The device flashes a red light if contact is not on" style="shape=partialRectangle;html=1;whiteSpace=wrap;connectable=0;strokeColor=inherit;overflow=hidden;fillColor=none;top=0;left=0;bottom=0;right=0;pointerEvents=1;" vertex="1" parent="tTmwREa-qUHU4TCVnqNG-15">
          <mxGeometry x="109" width="352" height="62" as="geometry">
            <mxRectangle width="352" height="62" as="alternateBounds" />
          </mxGeometry>
        </mxCell>
        <mxCell id="tTmwREa-qUHU4TCVnqNG-18" value="New Session Menu Option (UC2)" style="shape=partialRectangle;html=1;whiteSpace=wrap;connectable=0;strokeColor=inherit;overflow=hidden;fillColor=none;top=0;left=0;bottom=0;right=0;pointerEvents=1;" vertex="1" parent="tTmwREa-qUHU4TCVnqNG-15">
          <mxGeometry x="461" width="219" height="62" as="geometry">
            <mxRectangle width="219" height="62" as="alternateBounds" />
          </mxGeometry>
        </mxCell>
        <mxCell id="tTmwREa-qUHU4TCVnqNG-19" value="MainWindow, MainWindow.ui, handler, sinewavechart, wavefrom_generator,&amp;nbsp;" style="shape=partialRectangle;html=1;whiteSpace=wrap;connectable=0;strokeColor=inherit;overflow=hidden;fillColor=none;top=0;left=0;bottom=0;right=0;pointerEvents=1;" vertex="1" parent="tTmwREa-qUHU4TCVnqNG-15">
          <mxGeometry x="680" width="256" height="62" as="geometry">
            <mxRectangle width="256" height="62" as="alternateBounds" />
          </mxGeometry>
        </mxCell>
        <mxCell id="tTmwREa-qUHU4TCVnqNG-20" value="The device flashes a red light" style="shape=partialRectangle;html=1;whiteSpace=wrap;connectable=0;strokeColor=inherit;overflow=hidden;fillColor=none;top=0;left=0;bottom=0;right=0;pointerEvents=1;" vertex="1" parent="tTmwREa-qUHU4TCVnqNG-15">
          <mxGeometry x="936" width="244" height="62" as="geometry">
            <mxRectangle width="244" height="62" as="alternateBounds" />
          </mxGeometry>
        </mxCell>
        <mxCell id="Rrt1pkGHF1JBezEq-9He-98" style="shape=tableRow;horizontal=0;startSize=0;swimlaneHead=0;swimlaneBody=0;strokeColor=inherit;top=0;left=0;bottom=0;right=0;collapsible=0;dropTarget=0;fillColor=none;points=[[0,0.5],[1,0.5]];portConstraint=eastwest;" parent="Rrt1pkGHF1JBezEq-9He-1" vertex="1">
          <mxGeometry y="1232" width="1180" height="62" as="geometry" />
        </mxCell>
        <mxCell id="Rrt1pkGHF1JBezEq-9He-99" value="20" style="shape=partialRectangle;html=1;whiteSpace=wrap;connectable=0;strokeColor=inherit;overflow=hidden;fillColor=none;top=0;left=0;bottom=0;right=0;pointerEvents=1;" parent="Rrt1pkGHF1JBezEq-9He-98" vertex="1">
          <mxGeometry width="109" height="62" as="geometry">
            <mxRectangle width="109" height="62" as="alternateBounds" />
          </mxGeometry>
        </mxCell>
        <mxCell id="Rrt1pkGHF1JBezEq-9He-100" value="If the device does not have contact during a session for more than 5 minutes, the device shuts off" style="shape=partialRectangle;html=1;whiteSpace=wrap;connectable=0;strokeColor=inherit;overflow=hidden;fillColor=none;top=0;left=0;bottom=0;right=0;pointerEvents=1;" parent="Rrt1pkGHF1JBezEq-9He-98" vertex="1">
          <mxGeometry x="109" width="352" height="62" as="geometry">
            <mxRectangle width="352" height="62" as="alternateBounds" />
          </mxGeometry>
        </mxCell>
        <mxCell id="Rrt1pkGHF1JBezEq-9He-101" value="Resume Session (UC6)" style="shape=partialRectangle;html=1;whiteSpace=wrap;connectable=0;strokeColor=inherit;overflow=hidden;fillColor=none;top=0;left=0;bottom=0;right=0;pointerEvents=1;" parent="Rrt1pkGHF1JBezEq-9He-98" vertex="1">
          <mxGeometry x="461" width="219" height="62" as="geometry">
            <mxRectangle width="219" height="62" as="alternateBounds" />
          </mxGeometry>
        </mxCell>
        <mxCell id="Rrt1pkGHF1JBezEq-9He-102" value="MainWindow, MainWindow.ui, handler, sinewavechart, wavefrom_generator,&amp;nbsp;" style="shape=partialRectangle;html=1;whiteSpace=wrap;connectable=0;strokeColor=inherit;overflow=hidden;fillColor=none;top=0;left=0;bottom=0;right=0;pointerEvents=1;" parent="Rrt1pkGHF1JBezEq-9He-98" vertex="1">
          <mxGeometry x="680" width="256" height="62" as="geometry">
            <mxRectangle width="256" height="62" as="alternateBounds" />
          </mxGeometry>
        </mxCell>
        <mxCell id="Rrt1pkGHF1JBezEq-9He-103" value="The user needs to press the contact off button during a session and wait for a bit" style="shape=partialRectangle;html=1;whiteSpace=wrap;connectable=0;strokeColor=inherit;overflow=hidden;fillColor=none;top=0;left=0;bottom=0;right=0;pointerEvents=1;" parent="Rrt1pkGHF1JBezEq-9He-98" vertex="1">
          <mxGeometry x="936" width="244" height="62" as="geometry">
            <mxRectangle width="244" height="62" as="alternateBounds" />
          </mxGeometry>
        </mxCell>
        <mxCell id="Rrt1pkGHF1JBezEq-9He-104" style="shape=tableRow;horizontal=0;startSize=0;swimlaneHead=0;swimlaneBody=0;strokeColor=inherit;top=0;left=0;bottom=0;right=0;collapsible=0;dropTarget=0;fillColor=none;points=[[0,0.5],[1,0.5]];portConstraint=eastwest;" parent="Rrt1pkGHF1JBezEq-9He-1" vertex="1">
          <mxGeometry y="1294" width="1180" height="62" as="geometry" />
        </mxCell>
        <mxCell id="Rrt1pkGHF1JBezEq-9He-105" value="21" style="shape=partialRectangle;html=1;whiteSpace=wrap;connectable=0;strokeColor=inherit;overflow=hidden;fillColor=none;top=0;left=0;bottom=0;right=0;pointerEvents=1;" parent="Rrt1pkGHF1JBezEq-9He-104" vertex="1">
          <mxGeometry width="109" height="62" as="geometry">
            <mxRectangle width="109" height="62" as="alternateBounds" />
          </mxGeometry>
        </mxCell>
        <mxCell id="Rrt1pkGHF1JBezEq-9He-106" value="The session is interrupted using the pause button" style="shape=partialRectangle;html=1;whiteSpace=wrap;connectable=0;strokeColor=inherit;overflow=hidden;fillColor=none;top=0;left=0;bottom=0;right=0;pointerEvents=1;" parent="Rrt1pkGHF1JBezEq-9He-104" vertex="1">
          <mxGeometry x="109" width="352" height="62" as="geometry">
            <mxRectangle width="352" height="62" as="alternateBounds" />
          </mxGeometry>
        </mxCell>
        <mxCell id="Rrt1pkGHF1JBezEq-9He-107" value="Pause Session (UC5)" style="shape=partialRectangle;html=1;whiteSpace=wrap;connectable=0;strokeColor=inherit;overflow=hidden;fillColor=none;top=0;left=0;bottom=0;right=0;pointerEvents=1;" parent="Rrt1pkGHF1JBezEq-9He-104" vertex="1">
          <mxGeometry x="461" width="219" height="62" as="geometry">
            <mxRectangle width="219" height="62" as="alternateBounds" />
          </mxGeometry>
        </mxCell>
        <UserObject label="&#xa;&lt;span style=&quot;color: rgb(0, 0, 0); font-family: Helvetica; font-size: 12px; font-style: normal; font-variant-ligatures: normal; font-variant-caps: normal; font-weight: 400; letter-spacing: normal; orphans: 2; text-align: center; text-indent: 0px; text-transform: none; widows: 2; word-spacing: 0px; -webkit-text-stroke-width: 0px; white-space: normal; background-color: rgb(251, 251, 251); text-decoration-thickness: initial; text-decoration-style: initial; text-decoration-color: initial; display: inline !important; float: none;&quot;&gt;MainWindow, MainWindow.ui, handler, sinewavechart, wavefrom_generator,&amp;nbsp;&lt;/span&gt;&#xa;&#xa;" link="&#xa;&lt;span style=&quot;color: rgb(0, 0, 0); font-family: Helvetica; font-size: 12px; font-style: normal; font-variant-ligatures: normal; font-variant-caps: normal; font-weight: 400; letter-spacing: normal; orphans: 2; text-align: center; text-indent: 0px; text-transform: none; widows: 2; word-spacing: 0px; -webkit-text-stroke-width: 0px; white-space: normal; background-color: rgb(251, 251, 251); text-decoration-thickness: initial; text-decoration-style: initial; text-decoration-color: initial; display: inline !important; float: none;&quot;&gt;MainWindow, MainWindow.ui, handler, sinewavechart, wavefrom_generator,&amp;nbsp;&lt;/span&gt;&#xa;&#xa;" id="Rrt1pkGHF1JBezEq-9He-108">
          <mxCell style="shape=partialRectangle;html=1;whiteSpace=wrap;connectable=0;strokeColor=inherit;overflow=hidden;fillColor=none;top=0;left=0;bottom=0;right=0;pointerEvents=1;" parent="Rrt1pkGHF1JBezEq-9He-104" vertex="1">
            <mxGeometry x="680" width="256" height="62" as="geometry">
              <mxRectangle width="256" height="62" as="alternateBounds" />
            </mxGeometry>
          </mxCell>
        </UserObject>
        <mxCell id="Rrt1pkGHF1JBezEq-9He-109" value="The user clicks the pause button and the session is paused" style="shape=partialRectangle;html=1;whiteSpace=wrap;connectable=0;strokeColor=inherit;overflow=hidden;fillColor=none;top=0;left=0;bottom=0;right=0;pointerEvents=1;" parent="Rrt1pkGHF1JBezEq-9He-104" vertex="1">
          <mxGeometry x="936" width="244" height="62" as="geometry">
            <mxRectangle width="244" height="62" as="alternateBounds" />
          </mxGeometry>
        </mxCell>
        <mxCell id="Rrt1pkGHF1JBezEq-9He-110" style="shape=tableRow;horizontal=0;startSize=0;swimlaneHead=0;swimlaneBody=0;strokeColor=inherit;top=0;left=0;bottom=0;right=0;collapsible=0;dropTarget=0;fillColor=none;points=[[0,0.5],[1,0.5]];portConstraint=eastwest;" parent="Rrt1pkGHF1JBezEq-9He-1" vertex="1">
          <mxGeometry y="1356" width="1180" height="62" as="geometry" />
        </mxCell>
        <mxCell id="Rrt1pkGHF1JBezEq-9He-111" value="22" style="shape=partialRectangle;html=1;whiteSpace=wrap;connectable=0;strokeColor=inherit;overflow=hidden;fillColor=none;top=0;left=0;bottom=0;right=0;pointerEvents=1;" parent="Rrt1pkGHF1JBezEq-9He-110" vertex="1">
          <mxGeometry width="109" height="62" as="geometry">
            <mxRectangle width="109" height="62" as="alternateBounds" />
          </mxGeometry>
        </mxCell>
        <mxCell id="Rrt1pkGHF1JBezEq-9He-112" value="The session resumes using the play button" style="shape=partialRectangle;html=1;whiteSpace=wrap;connectable=0;strokeColor=inherit;overflow=hidden;fillColor=none;top=0;left=0;bottom=0;right=0;pointerEvents=1;" parent="Rrt1pkGHF1JBezEq-9He-110" vertex="1">
          <mxGeometry x="109" width="352" height="62" as="geometry">
            <mxRectangle width="352" height="62" as="alternateBounds" />
          </mxGeometry>
        </mxCell>
        <mxCell id="Rrt1pkGHF1JBezEq-9He-113" value="Resume Session (UC6)" style="shape=partialRectangle;html=1;whiteSpace=wrap;connectable=0;strokeColor=inherit;overflow=hidden;fillColor=none;top=0;left=0;bottom=0;right=0;pointerEvents=1;" parent="Rrt1pkGHF1JBezEq-9He-110" vertex="1">
          <mxGeometry x="461" width="219" height="62" as="geometry">
            <mxRectangle width="219" height="62" as="alternateBounds" />
          </mxGeometry>
        </mxCell>
        <mxCell id="Rrt1pkGHF1JBezEq-9He-114" value="MainWindow, MainWindow.ui, handler, sinewavechart, wavefrom_generator,&amp;nbsp;" style="shape=partialRectangle;html=1;whiteSpace=wrap;connectable=0;strokeColor=inherit;overflow=hidden;fillColor=none;top=0;left=0;bottom=0;right=0;pointerEvents=1;" parent="Rrt1pkGHF1JBezEq-9He-110" vertex="1">
          <mxGeometry x="680" width="256" height="62" as="geometry">
            <mxRectangle width="256" height="62" as="alternateBounds" />
          </mxGeometry>
        </mxCell>
        <mxCell id="Rrt1pkGHF1JBezEq-9He-115" value="The user clicks the play button to resume the session" style="shape=partialRectangle;html=1;whiteSpace=wrap;connectable=0;strokeColor=inherit;overflow=hidden;fillColor=none;top=0;left=0;bottom=0;right=0;pointerEvents=1;" parent="Rrt1pkGHF1JBezEq-9He-110" vertex="1">
          <mxGeometry x="936" width="244" height="62" as="geometry">
            <mxRectangle width="244" height="62" as="alternateBounds" />
          </mxGeometry>
        </mxCell>
        <mxCell id="Rrt1pkGHF1JBezEq-9He-116" style="shape=tableRow;horizontal=0;startSize=0;swimlaneHead=0;swimlaneBody=0;strokeColor=inherit;top=0;left=0;bottom=0;right=0;collapsible=0;dropTarget=0;fillColor=none;points=[[0,0.5],[1,0.5]];portConstraint=eastwest;" parent="Rrt1pkGHF1JBezEq-9He-1" vertex="1">
          <mxGeometry y="1418" width="1180" height="62" as="geometry" />
        </mxCell>
        <mxCell id="Rrt1pkGHF1JBezEq-9He-117" value="23" style="shape=partialRectangle;html=1;whiteSpace=wrap;connectable=0;strokeColor=inherit;overflow=hidden;fillColor=none;top=0;left=0;bottom=0;right=0;pointerEvents=1;" parent="Rrt1pkGHF1JBezEq-9He-116" vertex="1">
          <mxGeometry width="109" height="62" as="geometry">
            <mxRectangle width="109" height="62" as="alternateBounds" />
          </mxGeometry>
        </mxCell>
        <mxCell id="Rrt1pkGHF1JBezEq-9He-118" value="The device displays a message if user clicks menu and it is not on" style="shape=partialRectangle;html=1;whiteSpace=wrap;connectable=0;strokeColor=inherit;overflow=hidden;fillColor=none;top=0;left=0;bottom=0;right=0;pointerEvents=1;" parent="Rrt1pkGHF1JBezEq-9He-116" vertex="1">
          <mxGeometry x="109" width="352" height="62" as="geometry">
            <mxRectangle width="352" height="62" as="alternateBounds" />
          </mxGeometry>
        </mxCell>
        <mxCell id="Rrt1pkGHF1JBezEq-9He-119" value="N/A" style="shape=partialRectangle;html=1;whiteSpace=wrap;connectable=0;strokeColor=inherit;overflow=hidden;fillColor=none;top=0;left=0;bottom=0;right=0;pointerEvents=1;" parent="Rrt1pkGHF1JBezEq-9He-116" vertex="1">
          <mxGeometry x="461" width="219" height="62" as="geometry">
            <mxRectangle width="219" height="62" as="alternateBounds" />
          </mxGeometry>
        </mxCell>
        <mxCell id="Rrt1pkGHF1JBezEq-9He-120" value="MainWindow, MainWindow.ui, handler" style="shape=partialRectangle;html=1;whiteSpace=wrap;connectable=0;strokeColor=inherit;overflow=hidden;fillColor=none;top=0;left=0;bottom=0;right=0;pointerEvents=1;" parent="Rrt1pkGHF1JBezEq-9He-116" vertex="1">
          <mxGeometry x="680" width="256" height="62" as="geometry">
            <mxRectangle width="256" height="62" as="alternateBounds" />
          </mxGeometry>
        </mxCell>
        <mxCell id="Rrt1pkGHF1JBezEq-9He-121" value="The user click the menu button when the device is off" style="shape=partialRectangle;html=1;whiteSpace=wrap;connectable=0;strokeColor=inherit;overflow=hidden;fillColor=none;top=0;left=0;bottom=0;right=0;pointerEvents=1;" parent="Rrt1pkGHF1JBezEq-9He-116" vertex="1">
          <mxGeometry x="936" width="244" height="62" as="geometry">
            <mxRectangle width="244" height="62" as="alternateBounds" />
          </mxGeometry>
        </mxCell>
        <mxCell id="Rrt1pkGHF1JBezEq-9He-146" value="&lt;b&gt;&lt;font style=&quot;font-size: 49px;&quot;&gt;Traceability Matrix&lt;/font&gt;&lt;/b&gt;" style="text;html=1;align=center;verticalAlign=middle;resizable=0;points=[];autosize=1;strokeColor=none;fillColor=none;" parent="1" vertex="1">
          <mxGeometry x="433" y="80" width="450" height="70" as="geometry" />
        </mxCell>
      </root>
    </mxGraphModel>
  </diagram>
</mxfile>
